<svg xmlns="http://www.w3.org/2000/svg" xmlns:xlink="http://www.w3.org/1999/xlink" width="200" height="200" viewBox="0 0 200 200">
  <defs>
    <linearGradient id="linear-gradient" x1="0.5" x2="0.5" y2="1" gradientUnits="objectBoundingBox">
      <stop offset="0" stop-color="#58b550"/>
      <stop offset="1" stop-color="#127be5"/>
    </linearGradient>
    <clipPath id="clip-automate">
      <rect width="200" height="200"/>
    </clipPath>
  </defs>
  <g id="automate" clip-path="url(#clip-automate)">
    <rect width="200" height="200" fill="#fff"/>
    <path id="Path_39" data-name="Path 39" d="M101.109,4.656a93.642,93.642,0,0,1,33.207,4.326,95.592,95.592,0,0,1,16.236,6.857L160.9,22.708l9.057-8.156-1.746,26.916L141.5,40.184l9.308-8.383-7.567-4.783a76.992,76.992,0,0,0-12.914-5.368,81.332,81.332,0,0,0-95.1,37.288L22.3,54.828A94.6,94.6,0,0,1,101.109,4.656ZM105.878,40.5a59.372,59.372,0,0,1,11.754,1.245l-2.243,16.3,6.54,2.68,6.692,2.83,10.038-13.283a59.877,59.877,0,0,1,16.73,16.792l-13.232,9.962,2.738,6.453,2.7,6.641,16.426-2.189a55.859,55.859,0,0,1,0,23.547l-16.426-2.189-2.7,6.49-2.89,6.453,13.232,9.962a58.394,58.394,0,0,1-16.73,16.792l-10.038-13.132-6.54,2.679-6.692,2.68,2.243,16.3a59.97,59.97,0,0,1-23.764,0l2.243-16.3-6.54-2.83-6.692-2.68-9.886,13.132a57.089,57.089,0,0,1-16.882-16.792l13.232-9.811-2.738-6.641-2.7-6.491-16.426,2.227a59.855,59.855,0,0,1,0-23.547l16.426,2.189,2.889-6.49,2.7-6.642L56.111,66.875a58.311,58.311,0,0,1,16.882-16.6L82.879,63.4l6.692-2.679,6.54-2.68-2.243-16.3A55.277,55.277,0,0,1,105.878,40.5ZM186,49.325a92.926,92.926,0,0,1-36.515,131.654l-7.585,3.447,2.238,10.112-22.6-15.05,14.317-22.348,3.091,13.963,6.031-2.912A79.895,79.895,0,0,0,175.976,58.5ZM24.388,70.123l12.29,23.588L25.461,90.179l-.3,13.037A80.354,80.354,0,0,0,81.21,174.465a82.7,82.7,0,0,0,24.541,3.774L108.6,191.37a93.483,93.483,0,0,1-96.827-89.643l.785-15.61L0,82.162Zm81.305,5.469a23.963,23.963,0,1,0,24.221,24.037A23.989,23.989,0,0,0,105.693,75.592Z" transform="translate(0 0.463)" fill-rule="evenodd" fill="url(#linear-gradient)"/>
  </g>
</svg>
